<?xml version="1.0" encoding="UTF-8" standalone="no"?>
<!-- Created with Inkscape (http://www.inkscape.org/) -->

<svg
   version="1.1"
   id="svg1"
   width="352.95999"
   height="332.16"
   viewBox="0 0 352.95999 332.16"
   sodipodi:docname="kombinat-logo.svg"
   inkscape:version="1.4.4 (dcaf3e7d9e, 2026-05-05)"
   xmlns:inkscape="http://www.inkscape.org/namespaces/inkscape"
   xmlns:sodipodi="http://sodipodi.sourceforge.net/DTD/sodipodi-0.dtd"
   xmlns="http://www.w3.org/2000/svg"
   xmlns:svg="http://www.w3.org/2000/svg">
  <defs
     id="defs1" />
  <sodipodi:namedview
     id="namedview1"
     pagecolor="#ffffff"
     bordercolor="#000000"
     borderopacity="0.25"
     inkscape:showpageshadow="2"
     inkscape:pageopacity="0.0"
     inkscape:pagecheckerboard="0"
     inkscape:deskcolor="#d1d1d1"
     inkscape:zoom="1.4986849"
     inkscape:cx="304.60039"
     inkscape:cy="301.93139"
     inkscape:window-width="2554"
     inkscape:window-height="1559"
     inkscape:window-x="3"
     inkscape:window-y="3"
     inkscape:window-maximized="1"
     inkscape:current-layer="g1" />
  <g
     inkscape:groupmode="layer"
     inkscape:label="Image"
     id="g1">
    <path
       style="fill:#ededed;stroke-width:5.34975;stroke-linecap:round;stroke-linejoin:round;paint-order:markers fill stroke"
       d="m 150.0391,12.785167 c -38.95402,0.133952 -77.918448,-0.140725 -116.865305,0.528031 -8.071593,1.307295 -14.478745,7.708486 -18.111552,14.73326 -3.032391,6.613873 -1.397071,14.118593 -1.949502,21.136698 -0.538928,83.593654 -0.666456,167.209924 0.14148,250.791844 2.804463,8.1253 8.786362,15.96774 17.284948,18.50873 11.78823,1.07286 23.680131,0.46788 35.50797,0.77928 82.984761,0.40957 165.973351,0.56623 248.957851,0.0602 10.09901,1.00116 19.23718,-6.38378 23.2905,-15.18112 1.9648,-3.43745 2.1686,-7.2702 1.95021,-11.13643 0.63879,-83.75614 0.6692,-167.51924 -0.0879,-251.274463 0.40832,-6.37466 -0.875,-12.981662 -4.80197,-18.149523 C 330.74846,17.06779 322.97742,12.423004 314.81525,13.207706 259.8924,12.705753 204.9638,12.82049 150.0391,12.785167 Z m -11.02967,38.513081 c 48.75183,0.01332 97.50357,0.124109 146.25535,0.186147 6.44315,2.583328 12.01498,7.079201 14.83589,13.445662 2.84688,3.894303 1.28913,8.82158 1.68237,13.291317 0.0344,61.470286 0.0688,122.940586 0.10319,184.410876 -2.18083,8.38294 -8.56364,16.19236 -17.32641,17.93462 -20.97024,0.84993 -42.03895,0.35637 -63.04853,0.55085 -48.90155,-0.0714 -97.80915,0.39339 -146.706512,-0.35255 -4.506397,-0.0659 -9.415071,0.0421 -13.111785,-3.01262 -4.603154,-3.24904 -8.51977,-8.04625 -9.972688,-13.44498 0,-65.54525 0,-131.0905 0,-196.635758 3.199449,-8.157119 10.475967,-15.907837 19.805304,-15.878707 21.565766,-0.759747 43.292371,-0.333633 64.920151,-0.493033 0.85456,-6.08e-4 1.70912,-0.0012 2.56367,-0.0018 z"
       id="path1" />
    <path
       style="fill:#ededed;stroke-width:5.34975;stroke-linecap:round;stroke-linejoin:round;paint-order:markers fill stroke"
       d="m 94.590332,137.95061 c -2.185082,0.58892 -6.550107,-1.39746 -7.124271,1.47166 0.22713,3.99931 -0.450094,8.19254 0.336355,12.07192 2.950452,0.56715 6.109576,0.002 9.100009,0.69574 0.2309,3.16146 -0.456787,6.51987 0.336355,9.56077 3.21536,1.0248 6.7004,0.77692 10.04641,0.84504 -0.71269,2.07589 1.33393,6.79888 -1.90582,6.44761 -2.73065,0.41498 -5.709944,0.0249 -8.276053,0.99827 -0.473259,3.23414 -0.06355,6.61199 -0.200892,9.90081 -3.041644,0.20517 -6.261811,-0.42225 -9.184789,0.33635 -0.445901,4.3554 -0.348654,9.02623 -0.05813,13.38875 2.334267,1.27348 5.737881,0.12163 8.494335,0.4079 2.344187,-0.18693 6.829809,0.92949 5.864959,-2.96168 0.75329,-2.22085 -1.34846,-7.29697 1.60746,-7.31536 2.80606,-0.28272 5.81654,0.27654 8.48769,-0.56153 0.80503,-3.17759 -0.30964,-7.22269 0.80265,-10.12843 2.91517,-0.73886 6.97198,1.08187 9.09356,-1.63477 0.97666,-3.59743 0.41657,-7.52614 0.2912,-11.21213 -2.73072,-1.50126 -6.43706,-0.74719 -9.50087,-1.51498 -1.00748,-2.04513 -0.44865,-5.27308 -0.84087,-7.70729 0.6273,-3.671 -3.87243,-2.29135 -6.06509,-2.73572 -1.65451,-0.22886 -4.52231,0.3523 -3.82883,-2.20485 -0.31254,-2.55428 1.32138,-6.86002 -2.02826,-7.92507 -1.783906,-0.37894 -3.639608,-0.16717 -5.447104,-0.22301 z"
       id="path2" />
    <path
       style="fill:#ededed;stroke-width:5.34975;stroke-linecap:round;stroke-linejoin:round;paint-order:markers fill stroke"
       d="m 178.87531,129.09019 c -2.20929,0.65632 -6.52097,-1.27287 -7.2102,1.55781 -0.13644,3.00062 -0.27278,6.00125 -0.40893,9.00189 -2.27853,0.2988 -6.55902,-0.43523 -6.72157,2.90924 -0.41253,2.08602 0.21409,4.55475 -0.59161,6.45432 -2.21415,0.54867 -6.32093,-0.58352 -6.53081,2.84013 -0.35495,2.38315 0.23888,5.11731 -0.56121,7.29014 -2.77185,0.17037 -5.92366,0.27383 -8.51208,-0.3041 -1.50961,-9.66582 -0.36662,-19.6144 -1.03294,-29.28405 -2.34514,-1.29471 -5.77728,-0.22496 -8.54718,-0.56951 -2.6286,-0.32521 -5.95673,-0.287 -5.2969,3.33498 -0.52111,22.99159 -0.42562,46.00638 -0.0968,69.00249 -0.17763,2.94856 3.75334,2.11291 5.59363,2.3554 2.49571,-0.30174 5.78575,0.5343 7.71865,-1.37859 1.34563,-6.02184 0.59072,-12.36459 0.98236,-18.50859 0.19934,-3.45282 -0.0506,-7.25132 0.55013,-10.48887 2.95595,-0.24506 6.16748,-0.50853 9.05025,0.002 0.79102,2.97039 -1.138,7.42336 2.14253,9.23639 1.72473,0.86142 5.36797,-0.70075 4.90986,2.35172 0.6508,2.3035 -0.75505,5.69331 1.24405,7.19247 1.71981,0.41041 4.48663,-0.37113 5.68486,0.95469 0.68693,3.19528 -0.58197,6.82068 0.95561,9.76719 2.78379,1.2881 6.2034,0.31354 9.21333,0.62069 2.8198,0.5822 5.44733,-0.28944 4.90074,-3.63541 0.15882,-3.60268 0.52446,-7.41037 -0.28574,-10.88641 -1.94246,-0.66265 -4.24885,-0.0267 -6.13824,-0.85333 -0.7182,-2.51756 -0.006,-5.23144 -0.90678,-7.64769 -1.87421,-0.86824 -4.76644,-0.0968 -6.25804,-1.53709 -0.77153,-2.74112 0.74583,-6.38348 -1.38873,-8.57659 -1.69143,-0.96631 -4.30624,0.28644 -5.67104,-1.06712 -0.1001,-2.02052 -0.8528,-4.75987 0.46814,-6.43682 2.17048,-0.30584 5.71802,0.25997 6.13548,-2.78207 0.62139,-2.52316 -0.2755,-5.57636 0.76854,-7.84029 2.16569,-0.92891 5.37571,0.35829 6.78331,-1.60252 0.46033,-2.55004 -0.30351,-6.29498 0.89617,-8.12348 2.32883,-0.32785 6.73738,0.54645 5.74624,-3.23299 -0.1524,-3.33932 0.66381,-7.03406 -0.83499,-10.10204 -2.18656,-0.32848 -4.52698,0.0508 -6.75013,-0.0138 z"
       id="path3" />
    <path
       style="fill:#ededed;stroke-width:5.34975;stroke-linecap:round;stroke-linejoin:round;paint-order:markers fill stroke"
       d="m 197.17946,148.66696 c -0.45124,4.18974 -0.34603,8.69225 -0.0581,12.88929 2.41178,1.30386 5.92409,0.21125 8.75821,0.56951 2.91691,0.43183 6.31115,0.13185 5.41178,-3.73685 -0.16217,-2.93645 1.45894,-6.70409 -0.67149,-9.19484 -3.95326,-1.56702 -8.52589,-0.52372 -12.69209,-0.86346 l -0.43034,0.19344 z"
       id="path4" />
    <path
       style="fill:#ededed;stroke-width:5.34975;stroke-linecap:round;stroke-linejoin:round;paint-order:markers fill stroke"
       d="m 197.17946,180.27878 c -0.30114,3.94157 -0.61392,8.2195 0.32253,12.14655 1.35194,2.56716 4.95878,1.25849 7.26888,1.71097 2.07564,-0.43822 6.25218,1.44787 6.41461,-1.72621 0.3589,-3.76633 1.13337,-7.91916 -0.29657,-11.51758 -3.09989,-1.70537 -7.0545,-0.58695 -10.46017,-0.95008 -1.07981,0.11434 -2.28597,-0.29536 -3.24928,0.33635 z"
       id="path5" />
    <path
       style="fill:#ededed;stroke-width:5.34975;stroke-linecap:round;stroke-linejoin:round;paint-order:markers fill stroke"
       d="m 221.714,129.32242 c -0.39814,4.74792 -0.454,9.76837 0.18615,14.54342 1.77231,1.89161 4.95019,1.04419 7.16758,1.75734 0.75275,4.54833 -0.41288,9.42747 1.25419,13.78963 1.40271,2.19354 4.32958,0.25681 6.10691,1.18599 1.16649,4.47723 0.0655,9.35885 1.20259,13.80068 2.0138,0.58544 4.21919,0.17628 6.28384,0.64415 0.78322,4.58542 -0.24677,9.56649 1.43849,13.93061 1.74821,1.72784 4.82077,0.29708 6.55754,1.53894 0.73153,3.9926 -0.29871,8.47857 1.48549,12.20277 2.79434,1.52828 6.38616,0.49583 9.46369,0.90759 3.66386,0.85626 2.37368,-3.80186 2.84413,-5.95291 0.0687,-3.41275 0.58989,-7.15923 -0.97681,-10.27587 -2.00607,-0.63881 -4.78271,0.097 -6.50225,-1.04593 -0.62297,-4.07904 -0.14832,-8.25443 -0.60636,-12.29215 -0.86439,-2.76576 -4.40308,-2.05837 -6.58887,-2.32684 -0.36312,-4.42483 0.11461,-9.04264 -0.98971,-13.35467 -1.86128,-1.56617 -5.08674,-0.38962 -6.86993,-1.53433 -0.4506,-4.69984 0.007,-9.62635 -0.96852,-14.18403 -1.9451,-0.84276 -4.78009,0.47069 -6.48289,-0.84319 -0.91668,-3.97997 0.15924,-8.31002 -1.06159,-12.16499 -3.84,-1.28211 -8.18645,-0.35006 -12.19539,-0.66257 l -0.43034,0.19344 z"
       id="path6" />
    <path
       style="fill:#ededed;stroke-width:5.34975;stroke-linecap:round;stroke-linejoin:round;paint-order:markers fill stroke"
       d="m 130.79224,12.213825 c -32.463338,0.150763 -64.937693,-0.282633 -97.393729,0.451132 -7.149328,0.458622 -12.990013,5.870896 -16.990849,11.42173 -3.018546,4.419953 -4.877239,9.678863 -4.196602,15.074223 0,86.99547 0,173.99094 0,260.98641 3.183931,7.7249 8.477263,15.53246 16.567085,18.64327 10.013301,1.67283 20.264303,0.89603 30.377829,1.24159 82.431536,0.46598 164.868456,0.76465 247.299366,0.0677 5.37384,-0.25144 10.9036,0.28786 16.18169,-0.45194 9.32486,-3.61194 17.36957,-12.10208 18.38799,-22.30849 0.56761,-62.49323 0.17826,-124.99234 0.17857,-187.4878 -0.18316,-25.244585 0.21862,-50.505178 -0.58496,-75.738826 -1.53117,-10.764115 -10.70385,-19.711269 -21.19772,-21.901764 -62.87622,8.1e-4 -125.75244,-0.0022 -188.62867,0.0028 z m 111.36937,40.023452 c 14.57836,0.208908 29.20263,-0.364932 43.75192,0.585165 6.97052,2.673734 12.28144,8.957776 14.74965,15.830789 0.10069,64.954249 0.20089,129.908509 0.30061,194.862759 -2.71625,6.74147 -7.49585,12.8823 -14.4568,15.60251 -4.07612,1.37477 -8.72897,0.32771 -13.04,0.71604 -64.52099,0.54053 -129.05013,0.71708 -193.570143,-0.002 -5.609663,-0.48864 -11.727135,0.71277 -16.823418,-2.18824 -4.735057,-3.30529 -8.99639,-8.04591 -10.39757,-13.66614 -0.0045,-65.45679 -0.0084,-130.91357 -0.01192,-196.37036 3.050595,-6.74148 8.56449,-13.102633 16.138578,-14.566466 16.576644,-1.053735 33.216703,-0.449545 49.819173,-0.711611 41.17984,-0.120988 82.35995,-0.103479 123.53992,-0.09288 z"
       id="path7" />
    <path
       style="fill:#3c3c3c;stroke-width:5.34975;stroke-linecap:round;stroke-linejoin:round;paint-order:markers fill stroke;fill-opacity:1"
       d="M 179.38583,-0.75564632 C 130.3997,-0.64764473 81.407175,-0.91767911 32.425521,-0.29120029 17.250213,1.1547057 4.7169679,13.625497 0.57134234,27.895329 -1.0589486,38.805422 -0.35643624,49.92246 -0.67204169,60.91981 c -0.11713941,77.0393 -0.21283027,154.08092 0.29488727,231.11895 0.0614146,7.41623 0.37935734,15.27119 4.64471312,21.65675 5.302231,9.43103 14.9156223,16.32598 25.4708103,18.54743 23.917031,0.81754 47.866532,0.40446 71.796521,0.58678 74.09366,0.0312 148.20391,0.15241 222.2872,0.0269 11.06398,-3.59393 21.405,-10.85341 26.37022,-21.65111 3.52025,-5.55109 2.39794,-12.53371 2.94667,-18.77203 0.63374,-49.66332 0.17798,-99.33436 0.30175,-149.0008 -0.1299,-37.49943 0.20144,-75.007727 -0.48939,-112.500993 -1.29058,-11.68105 -9.78028,-21.3691619 -19.55834,-27.2170903 -5.14931,-2.6022356 -10.71599,-5.1217116 -16.61224,-4.47828482 -45.79831,0.002664 -91.59662,0.005328 -137.39493,0.007992 z M 139.94846,13.128894 c 60.37555,-0.001 120.75106,0.09276 181.12658,0.138228 8.36873,3.227268 15.80061,9.821106 18.19073,18.688101 1.13936,9.227528 0.50162,18.932464 0.76932,28.371078 0.17214,79.393399 0.0542,158.787169 0.0896,238.180719 -2.1668,9.34347 -9.32966,17.05969 -18.12441,20.38191 -75.47276,1.04012 -150.95651,0.55646 -226.433006,0.26482 -21.516349,-0.24981 -43.061101,-0.0198 -64.557218,-0.8663 C 22.146075,316.08198 16.455035,307.79723 13.040428,299.85428 13.148642,212.48456 12.795984,125.11282 13.371254,37.744534 12.863432,33.242021 14.301055,28.856389 16.943986,25.213706 20.515632,20.002123 25.613539,15.27034 31.796794,13.717222 67.838151,12.861108 103.8998,13.281913 139.94846,13.128894 Z"
       id="path8" />
    <path
       style="fill:#3c3c3c;fill-opacity:1;stroke-width:1.89142;stroke-linecap:round;stroke-linejoin:round;paint-order:markers fill stroke"
       d="m 163.41965,52.578325 c -27.92871,0.04574 -55.85851,-0.02239 -83.7863,0.221929 -3.946907,0.206895 -7.937249,0.08602 -11.828459,0.736268 -6.177439,1.601088 -10.924631,6.6214 -13.88066,12.096543 -0.554064,1.100181 -1.362407,2.145726 -1.094709,3.447683 0,64.895222 0,129.790442 0,194.685662 1.464244,5.64803 5.545946,10.23874 10.227065,13.52944 4.324762,2.62794 9.603937,1.97478 14.451403,2.20962 49.98801,0.7413 99.98381,0.5617 149.97529,0.38372 18.34882,-0.11031 36.70593,-0.20169 55.04915,-0.41231 2.0799,0.047 4.12193,-0.4827 5.92556,-1.54961 5.69229,-3.00735 9.8826,-8.44216 12.18899,-14.34721 -0.0144,-65.0481 -0.10298,-130.09615 -0.25014,-195.144082 -2.66437,-6.702103 -7.73863,-12.640069 -14.51608,-15.406544 -8.34388,-0.504125 -16.72346,-0.262086 -25.08636,-0.369565 -32.45814,-0.08784 -64.9165,-0.08928 -97.37475,-0.08154 z m -21.94437,76.132825 c 1.98,0.11694 4.20641,-0.29528 5.99288,0.73796 0.33659,4.35888 0.21075,8.7614 0.3123,13.1371 0.15069,5.23594 -0.10613,10.51846 0.7267,15.69775 0.17284,0.76943 1.27524,0.44033 1.8334,0.59277 2.05501,0.006 4.18588,0.36588 6.19936,-0.0454 0.59192,-0.41251 0.18676,-1.38963 0.38249,-1.99849 0.22988,-2.10193 -0.10241,-4.32933 0.64347,-6.34215 1.1207,-1.71679 3.48749,-1.33586 5.23408,-1.58929 0.41778,-0.10464 1.19833,0.12818 1.12241,-0.56625 0.40842,-2.32981 0.0205,-4.78098 0.7184,-7.05957 0.97835,-1.74283 3.29405,-1.6379 5.02291,-1.75581 0.55607,-0.0996 1.57012,0.15158 1.35928,-0.73477 0.2867,-2.87797 0.0562,-5.83834 0.66109,-8.68003 0.62376,-1.54519 2.64264,-1.26506 3.97861,-1.21224 3.16912,0.17921 6.35995,-0.33336 9.52477,-0.0317 1.25944,0.33288 1.20894,1.95328 1.42672,2.98251 0.17789,3.14771 0.30154,6.34272 -0.10981,9.47307 -0.79986,1.22178 -2.55243,1.08132 -3.83401,1.21765 -0.71001,0.12927 -2.1077,-0.21871 -2.13379,0.88966 -0.32202,2.35958 -0.21769,4.771 -0.44863,7.12409 -1.13497,1.67385 -3.35855,1.29995 -5.09171,1.515 -0.76661,0.0724 -1.9494,0.0128 -2.01348,1.05985 -0.51031,2.69669 0.24465,5.64371 -0.97416,8.20185 -1.31934,1.64024 -3.67676,1.47301 -5.56673,1.70723 -1.0608,0.73167 -0.67771,2.22405 -0.75156,3.3297 0.14902,0.96357 -0.21206,2.27298 0.6082,2.99127 1.68423,0.67962 3.74218,-0.0848 5.30772,0.93702 1.57259,1.68962 0.95122,4.21831 1.19214,6.2956 0.14059,0.75543 -0.1292,1.73181 0.36488,2.35977 1.77563,0.90226 3.90632,0.51827 5.72964,1.20679 0.91873,1.04345 0.64888,2.63127 0.85296,3.91554 0.14903,1.23621 0.003,2.56571 0.37663,3.74059 1.49489,0.67425 3.25117,0.3967 4.8459,0.67745 0.64667,-0.019 1.39922,0.17555 1.42555,0.95125 0.49217,3.5686 0.20072,7.19831 0.20437,10.7896 0.16076,1.58601 -0.90479,3.39627 -2.63033,3.41361 -3.42323,0.0642 -6.86641,0.14344 -10.28114,-0.12967 -0.99105,-0.10762 -2.00114,-0.63057 -2.14055,-1.71961 -0.58936,-2.83227 -0.0725,-5.79215 -0.59264,-8.62116 -0.84815,-0.92984 -2.33509,-0.51802 -3.45585,-0.72105 -1.00648,-0.0433 -2.35507,0.0941 -2.82179,-1.04873 -0.84285,-1.96387 -0.30167,-4.19592 -0.5597,-6.25942 0.0308,-0.80892 -0.14661,-1.94887 -1.19705,-1.91377 -1.61793,-0.24495 -3.68799,0.10776 -4.75189,-1.46319 -1.39479,-1.68852 -0.78102,-4.0471 -1.01539,-6.04282 -0.10563,-0.71601 0.0829,-1.64912 -0.29794,-2.23951 -2.69639,-0.21817 -5.4537,-0.1515 -8.15233,0.005 -0.70724,0.38892 -0.3062,1.46416 -0.50044,2.10895 -0.48117,7.99113 -0.27698,16.01193 -0.82512,23.99975 -0.23179,1.15401 -0.008,2.75687 -1.25515,3.38591 -1.93896,1.1562 -4.31571,0.70585 -6.46302,0.86486 -1.82062,-0.10451 -3.77703,0.21278 -5.50124,-0.49637 -1.26548,-0.6826 -0.78351,-2.33618 -0.96635,-3.49533 -0.44986,-17.01426 -0.35236,-34.03889 -0.21014,-51.05705 0.13768,-5.95821 -0.0211,-11.93174 0.39512,-17.87901 -0.0161,-0.90071 0.51356,-1.68654 1.38313,-1.95218 2.17754,-0.44357 4.50357,-0.14497 6.71683,-0.25479 z m 86.77105,0.0306 c 2.14001,0.0812 4.4476,-0.13615 6.43925,0.76858 0.83735,1.19777 0.53021,2.82373 0.72525,4.20355 0.19944,2.60615 -0.0208,5.27658 0.53822,7.83988 0.56108,0.75648 1.76795,0.47257 2.58594,0.61122 1.21141,0.14706 2.64587,-0.30269 3.70865,0.43202 0.70236,1.23011 0.49914,2.77956 0.71221,4.14426 0.32697,3.26585 0.0598,6.57762 0.49752,9.81817 0.62401,0.67158 1.77355,0.43652 2.61933,0.61686 1.43075,0.10166 3.02725,0.12606 4.17567,1.08842 0.97376,4.32376 0.70137,8.80117 0.99763,13.19711 1.9843,0.2741 4.46898,-0.20426 5.96975,1.44821 0.96346,1.05301 0.50497,2.63078 0.73886,3.91664 0.20798,3.10575 0.12708,6.28846 0.54546,9.33684 1.1952,0.8013 2.8036,0.53681 4.18334,0.7393 0.99432,0.0251 2.41603,0.0556 2.63846,1.29955 0.9286,2.83035 0.62213,5.88559 0.64206,8.81844 -0.18486,2.0281 0.0781,4.20382 -0.73074,6.1156 -0.81908,1.29994 -2.58553,0.61087 -3.82141,0.7193 -2.43769,-0.19554 -4.97904,0.14982 -7.34267,-0.58441 -1.37906,-0.45693 -1.4178,-2.23249 -1.7232,-3.4125 -0.57038,-2.92305 -0.21324,-5.92188 -0.61609,-8.85053 -0.44175,-1.01776 -1.86055,-0.67667 -2.74132,-0.85816 -1.32986,-0.17735 -3.2665,0.0457 -3.96411,-1.39675 -1.10812,-3.26408 -0.77801,-6.79556 -1.05254,-10.18429 -0.15453,-1.06206 0.0829,-2.27472 -0.33898,-3.25588 -1.95072,-0.56085 -4.11908,-0.1262 -6.05576,-0.76076 -0.71479,-1.35924 -0.50571,-3.0297 -0.69416,-4.52164 -0.23217,-3.03707 -0.0228,-6.12864 -0.62926,-9.1189 -0.47023,-0.52809 -1.38967,-0.17467 -2.02913,-0.29452 -1.3462,-0.0557 -3.16349,0.44243 -3.98069,-1.00349 -1.15255,-2.16925 -0.9102,-4.75588 -1.10277,-7.13182 -0.12941,-2.20501 0.0103,-4.52783 -0.34936,-6.65533 -2.21502,-0.55435 -4.80229,-0.13447 -6.76211,-1.50099 -0.70377,-0.92651 -0.47443,-2.25693 -0.65487,-3.34995 -0.15826,-3.77665 -0.18987,-7.57401 0.0857,-11.34392 0.10826,-0.94958 1.3708,-0.60215 2.01517,-0.75367 1.58881,-0.0823 3.17983,-0.12455 4.77071,-0.13644 z m -134.747363,8.9587 c 2.245137,0.11438 4.566219,-0.20477 6.762443,0.35774 1.67264,0.52782 2.30344,2.44793 2.09787,4.04879 -0.0344,1.71964 -0.0961,3.43857 -0.14434,5.15785 1.13524,1.03316 2.8476,0.62252 4.23368,0.84077 1.68064,0.20669 3.55169,-0.1334 5.09938,0.67683 0.9423,0.89067 0.52196,2.39589 0.75696,3.54548 0.21325,2.01416 -0.0495,4.12484 0.62022,6.04203 0.69936,0.53473 1.78675,0.27078 2.62111,0.47804 2.29559,0.2672 4.81833,0.13142 6.89447,1.23371 0.37178,3.37706 0.34513,6.84282 0.0481,10.2372 -0.13004,1.84758 -2.02517,2.95739 -3.74308,2.84597 -1.86485,0.0884 -3.79344,-0.0857 -5.61473,0.17165 -0.66052,2.01043 -0.37783,4.2015 -0.5125,6.28933 -0.14008,1.17289 0.15457,2.48231 -0.31603,3.5787 -1.08311,0.81114 -2.60683,0.49985 -3.87481,0.67279 -1.84486,0.13515 -3.74138,-0.0532 -5.54751,0.35806 -0.92906,0.94969 -0.47143,2.45913 -0.58671,3.6526 -0.002,1.64434 0.13823,3.30901 0.056,4.93957 -0.60924,1.02204 -1.76512,1.49414 -2.925089,1.37458 -3.595426,0.0881 -7.212074,0.34845 -10.800812,0.0694 -0.577681,-0.13665 -1.348916,-0.36292 -1.183004,-1.12859 -0.344138,-4.29014 -0.386357,-8.61928 0.06158,-12.90324 1.349858,-0.69775 3.058435,-0.40205 4.56613,-0.52499 1.52234,-0.0146 3.044811,-0.004 4.567204,-0.007 0.0784,-3.24813 -0.132501,-6.51923 0.251197,-9.75171 1.739487,-0.82354 3.838864,-0.73765 5.756344,-0.92692 1.30415,-0.18398 2.73916,0.028 3.9289,-0.49393 0.67492,-1.05185 0.27129,-2.4513 0.37844,-3.63728 -0.12921,-0.91986 0.47482,-2.56407 -1.02617,-2.12878 -2.84623,-0.16503 -5.80443,0.10074 -8.562489,-0.73182 -0.786268,-0.60807 -0.497186,-1.83991 -0.661712,-2.71397 -0.177562,-2.32312 0.108298,-4.69968 -0.211449,-6.98855 -2.797372,-0.37115 -5.73228,-0.14019 -8.53222,-0.64607 -0.914727,-0.58922 -0.514438,-1.92655 -0.65907,-2.83438 4.54e-4,-3.38706 -0.149581,-6.80686 0.197076,-10.1741 0.64952,-1.25209 2.360532,-0.81878 3.505269,-0.96473 0.833047,-0.0127 1.66622,-0.0131 2.499344,-0.015 z m 110.519103,10.39681 c 2.24188,0.0446 4.65609,-0.0455 6.71096,0.96667 1.67845,1.84756 1.1639,4.49978 0.96313,6.7506 -0.1722,1.66667 -0.0741,3.36755 -0.19651,5.02926 -0.72298,0.92579 -1.79495,1.61495 -3.01208,1.47395 -3.49813,0.0449 -7.02749,0.24082 -10.50759,-0.18343 -0.75476,-0.0293 -1.1952,-0.65847 -1.09405,-1.38631 -0.21372,-3.9424 -0.32391,-7.92269 0.0827,-11.85349 0.20407,-0.89748 1.42758,-0.48975 2.07548,-0.66925 1.65751,-0.0921 3.31803,-0.1226 4.97791,-0.128 z m -1.21005,31.61007 c 2.44965,0.14862 5.05089,-0.32713 7.37463,0.65259 1.49503,0.46888 1.4465,2.31148 1.60557,3.58844 0.1181,3.13284 0.13435,6.34887 -0.65519,9.40049 -0.46873,1.38964 -2.21739,1.02845 -3.34102,1.06053 -2.92802,-0.15052 -5.89694,0.0497 -8.79788,-0.41608 -1.34882,-0.4327 -1.95442,-1.87206 -2.03401,-3.18997 -0.32146,-3.40988 -0.35458,-6.87217 0.005,-10.2792 0.28344,-1.07827 1.70871,-0.61075 2.51029,-0.77293 1.11049,-0.032 2.22149,-0.0416 3.3324,-0.0439 z"
       id="path9" />
    <path
       style="fill:#ffffff;fill-opacity:1;stroke-width:7.56569;stroke-linecap:round;stroke-linejoin:round;paint-order:markers fill stroke"
       d="m 28.336042,15.380673 c -5.233708,3.125762 -10.292416,7.523948 -12.878479,13.13782 -2.365744,11.001275 -1.16679,22.437026 -1.78151,33.612803 -0.611238,79.596504 -0.180849,159.196224 -0.131626,238.794004 3.914995,7.14991 9.104858,14.63439 17.202513,17.1653 89.72129,1.22047 179.45571,0.53344 269.18268,0.66705 7.59865,-0.2255 15.42573,0.43213 22.88453,-0.334 8.17725,-3.91712 14.95458,-11.53687 16.98065,-20.34069 -0.12103,-88.66845 -0.24206,-177.3369 -0.36309,-266.005357 -3.33553,-8.292473 -10.11511,-15.496231 -18.53578,-18.470765 -96.27321,-0.0208 -192.54642,-0.04161 -288.81963,-0.06241 -1.246753,0.612082 -2.493506,1.224164 -3.740258,1.836246 z M 164.88675,52.302367 c 40.26268,0.06631 80.53297,0.111321 120.7908,0.23458 6.74467,3.347244 12.71215,9.355347 15.11868,16.47017 -0.0217,65.106743 0.0261,130.222473 -0.039,195.323593 -3.38139,6.61505 -8.57588,13.18086 -15.84071,15.44759 -71.17938,-0.0796 -142.36439,0.42256 -213.540089,-0.29889 -5.605765,0.0677 -10.645572,-2.7334 -14.033819,-7.10056 -3.863317,-3.34258 -4.373754,-8.46546 -4.204827,-13.23889 -0.583784,-64.17811 -0.188536,-128.37589 -0.258039,-192.549024 4.028969,-6.800491 10.263482,-13.899419 18.905898,-13.578311 26.562173,-1.105913 53.179226,-0.473258 79.762646,-0.710258 4.44617,0 8.89234,0 13.33851,0 z"
       id="path270" />
    <path
       style="fill:#ffffff;fill-opacity:1;stroke-width:7.56569;stroke-linecap:round;stroke-linejoin:round;paint-order:markers fill stroke"
       d="m 92.939558,137.9999 c -2.188171,0.10076 -5.878037,-0.36119 -5.271549,3.05476 -0.08821,3.32639 -1.166593,7.48251 0.785845,10.35152 2.395706,0.9326 7.391426,-1.24322 7.868878,2.46571 0.912216,2.46263 0.08727,5.95772 1.705923,7.86627 2.925715,0.66791 6.090135,0.40825 8.931005,1.05691 -0.0533,1.96638 1.44521,6.05626 -1.80887,6.27504 -2.39002,0.76813 -5.901721,-0.14821 -7.699464,1.40879 -0.654829,3.13401 -0.487381,6.52767 -1.225032,9.54482 -3.008597,0.82734 -9.381739,-2.25211 -8.663846,2.90229 -0.174957,3.55685 -0.63867,7.68925 0.873161,10.90539 4.443397,0.87616 9.065072,0.30289 13.466231,-0.51477 1.25414,-2.83508 -1.65256,-9.77031 2.83725,-9.49718 3.18911,-0.60831 8.71949,1.06988 7.33313,-4.00555 0.191,-2.36254 -0.4306,-7.19343 3.30237,-6.84454 2.74574,0.25022 7.05261,0.11205 6.74029,-3.7989 -0.24397,-2.98546 1.12626,-6.87475 -0.94615,-9.35717 -2.82781,-1.15408 -8.3073,0.88746 -8.82153,-3.54607 -0.33268,-2.47679 0.60914,-7.53436 -3.11471,-7.61215 -2.33981,-0.13377 -4.84861,-0.30658 -7.00875,-1.03346 -0.0327,-3.19078 0.99131,-9.23724 -3.832788,-9.4145 -1.804368,-0.24976 -3.634162,-0.2255 -5.451394,-0.20721 z"
       id="path271" />
    <path
       style="fill:#ffffff;fill-opacity:1;stroke-width:7.56569;stroke-linecap:round;stroke-linejoin:round;paint-order:markers fill stroke"
       d="m 138.39999,129.31911 c -2.36745,-0.33465 -5.70746,0.0333 -4.78284,3.32062 -0.23924,22.73315 -0.72649,45.50405 0.15639,68.22127 0.10482,3.89633 5.29719,2.55656 7.78156,2.62339 2.1214,-0.19023 5.58017,0.21029 5.18814,-2.99741 1.42952,-8.60811 0.0137,-17.50223 1.45831,-26.07365 1.72189,-2.88625 6.00871,-0.56092 8.61172,-1.12729 1.08346,2.98605 -0.33254,9.0948 4.26546,9.63866 3.54788,-0.79627 3.87642,3.36688 3.60733,5.80327 -0.55393,3.59178 3.61683,3.97292 6.14992,3.90837 1.07497,3.03879 -0.17525,7.50754 2.0591,10.06351 3.90099,0.62109 8.45604,1.78051 12.24641,0.16681 2.14261,-3.63292 0.65885,-8.3566 0.77412,-12.39889 -0.11592,-3.40602 -6.04128,-0.40606 -6.23724,-4.00351 0.11541,-2.39046 -0.0197,-6.95286 -3.53826,-6.45357 -3.63208,0.36926 -4.22753,-3.79518 -3.88883,-6.49137 0.50667,-3.70077 -3.63434,-3.37069 -5.89319,-4.21072 -0.95314,-1.88467 -0.65812,-4.38582 -0.649,-6.33629 2.75799,-0.0978 6.87783,-0.85188 6.53307,-4.51307 -0.18115,-2.63953 0.0766,-7.1519 3.76502,-6.8693 3.08093,0.69999 4.19551,-2.57983 4.04261,-5.02133 -0.0192,-2.05794 0.38844,-5.25378 3.33104,-4.33062 4.017,0.30993 2.62562,-5.06981 2.75545,-7.50232 1.36561,-5.33574 -2.18487,-5.73895 -6.59215,-5.28233 -2.28203,0.34161 -5.75689,-0.84712 -7.37756,0.95266 -0.93313,2.9915 -0.63858,6.30283 -1.33059,9.24899 -2.5943,-0.0933 -6.84175,0.38727 -6.16817,4.05695 0.30827,2.43622 -0.33505,6.35251 -3.69204,5.64166 -4.22734,-0.2951 -3.50028,5.23958 -3.85033,7.93606 0.2456,3.25473 -4.44324,1.26962 -6.62239,1.64787 -3.72063,-0.82442 -2.33696,-5.96389 -2.79091,-8.7146 -0.36531,-6.73061 0.48921,-13.73131 -0.85943,-20.31346 -2.47227,-1.15713 -5.7856,-0.32331 -8.45272,-0.59036 z"
       id="path272" />
    <path
       style="fill:#ffffff;fill-opacity:1;stroke-width:7.56569;stroke-linecap:round;stroke-linejoin:round;paint-order:markers fill stroke"
       d="m 197.12596,151.09211 c -0.23357,3.52212 -0.69244,7.74317 1.36969,10.75161 3.7896,0.38261 8.23558,0.96007 11.759,-0.64249 1.48164,-3.30593 1.71983,-7.43096 0.91487,-10.9458 -3.16753,-2.96811 -8.37664,-0.94071 -12.29203,-1.59254 -2.15079,-0.69561 -1.27061,1.14674 -1.75153,2.42922 z"
       id="path273" />
    <path
       style="fill:#ffffff;fill-opacity:1;stroke-width:7.56569;stroke-linecap:round;stroke-linejoin:round;paint-order:markers fill stroke"
       d="m 197.18069,182.58326 c -0.14312,3.41059 -0.56477,7.50361 1.21721,10.48184 3.71453,1.44651 8.28592,1.53503 12.05093,0.52129 1.05476,-3.58105 1.8203,-7.91963 0.59428,-11.54006 -2.95646,-3.61418 -8.50966,-1.30862 -12.44972,-2.02261 -1.83204,-0.55972 -0.97459,1.54648 -1.4127,2.55954 z"
       id="path274" />
    <path
       style="fill:#ffffff;fill-opacity:1;stroke-width:7.56569;stroke-linecap:round;stroke-linejoin:round;paint-order:markers fill stroke"
       d="m 230.45726,129.37385 c -2.78982,0.92718 -9.09968,-1.75401 -8.82821,2.26688 0.14375,4.14267 -1.14482,9.16763 1.28644,12.77886 2.17946,1.28252 7.37695,-0.33958 6.48486,3.43661 0.4341,3.91854 -0.95079,9.05691 1.88967,12.1617 1.99943,1.01189 6.04701,-0.8132 5.28888,2.76713 0.33154,3.83394 0.66276,7.66792 0.99398,11.50189 4.57811,-0.18345 7.83344,1.12031 6.72839,6.32249 0.70193,2.7828 -0.4916,7.41256 2.6405,8.92916 1.87087,0.18026 4.98235,-0.20153 4.84018,2.5856 1.11028,3.41845 -0.30289,7.95471 2.20245,10.77899 3.34103,0.54551 7.40199,1.42602 10.63563,-0.0482 1.9921,-3.68035 0.88521,-8.44443 0.79366,-12.46665 -0.0758,-3.84621 -4.75672,-2.76124 -6.95401,-4.21464 -1.35326,-4.38322 0.26981,-9.64287 -2.19203,-13.59264 -1.83831,-1.47126 -6.0685,1.03898 -5.21649,-2.74609 -0.52581,-3.80334 -0.0626,-8.0791 -1.46515,-11.62198 -2.19856,-1.28917 -7.04914,0.30011 -6.37936,-3.42513 -0.78894,-3.80976 0.39227,-8.44652 -1.72019,-11.84607 -1.98563,-0.64585 -5.34106,0.28923 -5.80066,-2.63512 -1.10474,-3.39995 0.40175,-7.7053 -1.83624,-10.60435 -1.04584,-0.50155 -2.27422,-0.30735 -3.3923,-0.32841 z"
       id="path275" />
  </g>
</svg>
