<?xml version="1.0" encoding="UTF-8" standalone="no"?>
<!-- Created with Inkscape (http://www.inkscape.org/) -->

<svg
   version="1.1"
   id="svg1"
   width="1103.4384"
   height="1038.8822"
   viewBox="0 0 1103.4384 1038.8822"
   sodipodi:docname="kombinat-logo.svg"
   inkscape:version="1.4.4 (dcaf3e7d9e, 2026-05-05)"
   xmlns:inkscape="http://www.inkscape.org/namespaces/inkscape"
   xmlns:sodipodi="http://sodipodi.sourceforge.net/DTD/sodipodi-0.dtd"
   xmlns="http://www.w3.org/2000/svg"
   xmlns:svg="http://www.w3.org/2000/svg">
  <defs
     id="defs1">
    <clipPath
       clipPathUnits="userSpaceOnUse"
       id="clipPath25">
      <rect
         style="fill:#ff0000;stroke:none;stroke-width:3;stroke-linecap:square;stroke-linejoin:miter;paint-order:stroke markers fill;stop-color:#000000"
         id="rect25-8"
         width="78"
         height="45.033199"
         x="763.61322"
         y="452.82422" />
    </clipPath>
    <clipPath
       clipPathUnits="userSpaceOnUse"
       id="clipPath55">
      <path
         id="path55"
         style="stroke-width:0.1;stroke-linecap:square;paint-order:markers fill stroke;stop-color:#000000"
         d="m 1736.6147,-745.57287 h 1589.4765 v 72.46715 H 1736.6147 Z" />
    </clipPath>
  </defs>
  <sodipodi:namedview
     id="namedview1"
     pagecolor="#ffffff"
     bordercolor="#000000"
     borderopacity="0.25"
     inkscape:showpageshadow="2"
     inkscape:pageopacity="0.0"
     inkscape:pagecheckerboard="0"
     inkscape:deskcolor="#d1d1d1"
     inkscape:zoom="0.64"
     inkscape:cx="626.5625"
     inkscape:cy="527.34375"
     inkscape:window-width="2554"
     inkscape:window-height="1559"
     inkscape:window-x="3"
     inkscape:window-y="3"
     inkscape:window-maximized="1"
     inkscape:current-layer="g1" />
  <g
     inkscape:groupmode="layer"
     inkscape:label="Image"
     id="g1"
     transform="translate(-855.42146,-248.41593)">
    <g
       id="g7">
      <path
         style="fill:#2b2b2b;fill-opacity:1;stroke:none;stroke-width:17.7165;stroke-linecap:round;stroke-linejoin:round;stroke-opacity:1;paint-order:markers fill stroke"
         d="m 1124.231,248.4375 c -56.5639,0.41141 -113.1788,-0.52344 -169.70829,1.44653 -57.01679,8.37201 -101.91594,64.35512 -98.33098,121.79227 -1.54204,232.41705 -0.33605,464.84522 -0.076,697.2658 0.79939,43.0994 -0.99776,86.3733 2.33763,129.3611 9.69655,35.4608 35.16964,67.0673 69.97408,80.366 22.94474,11.5754 49.36124,6.6115 74.02896,8.1562 287.5688,1.0007 575.155,0.1104 862.7169,0.055 34.0727,-9.4045 65.8188,-31.1642 81.4545,-63.5773 9.9433,-18.0722 11.9833,-38.8333 11.4328,-59.1093 1.4177,-216.52827 0.481,-433.06769 0.653,-649.60037 -0.782,-58.1457 1.2607,-116.45499 -3.0343,-174.48122 -4.3354,-23.29852 -18.133,-44.39499 -35.1745,-60.55603 -16.8082,-15.35515 -38.134,-26.31703 -60.3485,-30.56055 -245.3084,-0.1925 -490.6168,-0.68834 -735.9253,-0.55823 z m 282.5744,42.42554 c 147.6431,0.42466 295.36,-0.84895 442.9566,1.41601 27.2989,1.30095 50.4894,22.98182 60.9588,47.27784 9.8448,23.02849 4.489,48.82632 6.2404,73.15017 1.0988,249.7435 1.4294,499.49951 -0.3396,749.24004 3.7354,35.6751 -21.4707,70.9832 -55.484,80.9509 -16.0943,4.7682 -33.5894,0.9821 -50.2672,2.1864 -272.6931,-0.3542 -545.3911,0.5709 -818.08092,-0.833 -19.17996,-1.0686 -40.49557,2.7379 -57.00456,-9.6475 -22.93241,-14.7063 -39.58924,-41.395 -36.71163,-69.1826 -1.8422,-252.35872 -1.53091,-504.73359 -0.49839,-757.096 0.9593,-19.50806 -1.26742,-39.61806 1.89507,-58.76475 6.90059,-24.93243 25.46005,-46.33686 50.20752,-54.86145 19.11523,-5.08189 39.86902,-2.22685 59.63091,-3.37831 132.1636,-0.7251 264.3319,-0.35119 396.497,-0.45775 z"
         id="path1" />
      <path
         style="fill:#242424;fill-opacity:1;stroke:none;stroke-width:17.716;stroke-linecap:round;stroke-linejoin:round;stroke-dasharray:none;stroke-opacity:1;paint-order:markers fill stroke"
         d="m 1184.8358,406.21948 c -39.3666,0.75232 -78.9431,-1.37663 -118.1793,2.12098 -25.9511,6.82415 -47.2987,29.82636 -52.8137,55.72204 0.065,204.30541 -0.1302,408.64021 0.098,612.9273 8.9986,23.8898 27.3226,46.0853 53.3173,51.5563 22.8507,3.6657 46.3244,1.0962 69.4089,2.1405 200.3313,0.578 400.6769,1.2336 601.0012,-0.5841 36.7213,-2.9541 67.4281,-38.9038 63.9228,-75.7808 1.4772,-196.86526 0.2393,-393.75746 0.1245,-590.61625 -6.63,-22.8231 -22.3517,-43.15964 -44.6167,-52.4222 -12.9218,-8.49367 -29.1414,-2.87846 -43.6554,-4.51409 -176.2024,-0.17955 -352.4047,-0.52406 -528.6072,-0.54968 z m 93.7225,248.20862 c 11.4841,0.29618 22.9791,0.25842 34.4666,0.46692 0.2707,31.1839 0.5434,62.36778 0.8179,93.55164 11.2197,2.52722 24.2293,0.92645 36.1328,1.87683 2.3779,-9.59347 0.3333,-21.05008 1.0254,-31.35377 7.399,-1.96001 24.5174,5.43084 21.875,-7.25097 2.2096,-7.35259 -5.555,-24.67928 6.25,-22.43653 11.1,2.01333 19.2264,-0.7097 15.625,-13.50097 1.8869,-7.67522 -5.566,-24.69031 7.8125,-20.87403 10.791,2e-5 21.582,0 32.373,0 0,11.83269 0,23.66538 0,35.49806 -7.9276,1.30536 -24.2122,-4.90481 -20.3125,8.81347 -1.7584,7.80372 5.3639,24.48825 -7.8125,20.87403 -11.2491,-2.19595 -19.223,0.70891 -15.625,13.50097 -0.9592,8.603 4.4832,23.60752 -9.375,19.31153 -13.2561,-3.98962 -13.8618,6.20883 -12.5,16.62597 -3.8691,13.39614 5.3386,15.35541 16.568,13.50097 10.4996,-1.43958 3.4029,15.23931 5.8696,22.07303 -3.2804,13.15667 12.7968,7.41744 20.5402,9.16888 5.9191,3.47704 -0.2122,17.74194 0.9279,25.49944 6.066,4.80206 24.523,-5.33671 21.7193,7.32115 -0.7824,11.3511 1.4572,24.38444 -1.1993,34.92433 -12.9013,-1.65109 -26.0076,-0.70864 -38.9862,-0.98877 -0.6716,-11.31839 1.325,-23.74193 -1.001,-34.375 -7.6752,-1.88696 -24.6903,5.56596 -20.874,-7.8125 -1.9846,-7.3914 5.5416,-24.5852 -7.251,-21.875 -12.1888,2.62666 -17.6365,-1.48784 -14.624,-14.0625 0.1116,-8.71017 2.9603,-21.69947 -10.3974,-17.05534 -8.7643,0.90673 -18.7051,-0.89975 -26.7608,1.64091 -0.2716,31.04757 -0.5442,62.09514 -0.8179,93.1427 -12.4169,0.16397 -25.7607,3.3032 -37.6556,1.11694 -1.2036,-71.82207 -1.465,-143.83444 -0.2897,-215.65638 1.0632,-3.03544 -1.0071,-11.01311 3.4787,-11.66601 z m 290.973,0.47912 c 9.7093,0.11328 23.0273,-3.38212 18.5302,10.9375 0.6997,10.26508 -1.3847,21.68334 1.001,31.25 7.2875,2.27466 24.7015,-5.57717 22.4365,6.25 0.6453,13.36602 -1.2859,27.77352 0.9644,40.49074 6.928,2.69718 23.8314,-4.39907 23.3642,5.56245 0.9254,13.09872 -0.7755,27.29836 1.7151,39.74089 7.5093,2.1463 23.9222,-4.39488 20.2154,8.69002 0.8837,12.59339 -0.7903,26.26154 1.6627,38.19414 6.8379,2.71015 23.8787,-4.40896 23.172,5.56334 0,13.4135 0,26.827 0,40.24048 -11.5816,0.36329 -23.0918,-0.27978 -34.6466,-0.88195 -0.9592,-13.62247 0.712,-28.35797 -1.8158,-41.31775 -6.8713,-2.70484 -23.927,4.40361 -23.2544,-5.56336 -0.6719,-13.89186 1.3343,-28.89308 -1.001,-42.09594 -7.2875,-2.27465 -24.7015,5.57718 -22.4365,-6.25 -0.6964,-12.87059 1.3746,-26.88747 -1.001,-39.0625 -7.2875,-2.27465 -24.7015,5.57718 -22.4365,-6.25 -0.6662,-13.40392 1.3301,-27.91072 -1.001,-40.625 -7.163,-2.39914 -24.3813,5.25694 -23.999,-4.6875 0,-13.39518 0,-26.79037 0,-40.18556 6.1767,2e-5 12.3535,0 18.5303,0 z m -417.9688,28.125 c 8.5089,1.05331 23.8058,-4.68145 19.3115,9.375 2.2991,7.23631 -5.4973,24.27758 5.6885,23.4375 8.5137,1.04849 21.211,-2.08664 27.124,1.5625 0.6485,10.13186 -1.2613,21.24688 0.8972,30.79834 10.0826,1.06943 20.1952,2.2423 30.3528,2.01416 0,11.83269 0,23.66538 0,35.49806 -10.2459,0.65716 -21.5505,-1.29251 -31.1432,0.9735 -0.289,10.88255 -0.5771,21.76511 -0.8636,32.64771 -10.5185,1.00078 -22.247,-0.75471 -32.0557,1.86462 0,10.56722 0,21.13444 0,31.70167 -12.8743,0 -25.7487,-10e-6 -38.623,0 0,-12.87436 0,-25.7487 0,-38.62306 9.7087,-0.69511 20.5334,1.35795 29.5776,-0.9735 0.2885,-10.36172 0.5764,-20.72345 0.8637,-31.0852 10.5195,-1.00069 22.249,0.75473 32.0587,-1.86463 -0.7253,-8.989 1.3979,-19.15784 -1.001,-27.45361 -10.6038,-10e-6 -21.2077,0 -31.8115,0 -0.7058,-10.78337 1.3846,-22.72495 -1.001,-32.8125 -9.5622,-10e-6 -19.1243,-10e-6 -28.6865,0 0,-12.35351 0,-24.70704 0,-37.06056 6.4372,2e-5 12.8743,0 19.3115,0 z m 342.1875,32.8125 c 8.5089,1.05331 23.8058,-4.68145 19.3115,9.375 -1.035,8.71436 2.0821,21.58083 -1.5625,27.68556 -12.3535,-10e-6 -24.707,0 -37.0605,0 0,-12.35351 0,-24.70704 0,-37.06056 6.4372,0 12.8743,2e-5 19.3115,0 z m 0,98.4375 c 8.5089,1.05331 23.8058,-4.68145 19.3115,9.375 0,9.77377 0,19.54753 0,29.3213 -12.72,-0.4112 -25.4379,-0.24502 -38.1073,-1.33667 -0.8589,-12.4055 -0.3781,-24.90663 -0.5157,-37.35963 6.4372,0 12.8743,2e-5 19.3115,0 z"
         id="path2" />
      <path
         style="fill:#ffffff;fill-opacity:1;stroke:none;stroke-width:17.7165;stroke-linecap:round;stroke-linejoin:round;stroke-opacity:1;paint-order:markers fill stroke"
         d="m 1131.8115,683.59375 c 0.6878,12.12657 -1.3363,25.35191 0.9705,36.82251 9.3211,0.28954 18.6421,0.57853 27.9632,0.8667 0.985,10.49126 -0.7214,22.1407 1.8341,31.95496 10.3171,0.2855 20.634,0.57218 30.951,0.86059 -1.1386,8.1395 2.1871,20.62082 -1.5619,26.22139 -9.9886,0.98939 -21.1922,-0.78953 -30.4694,1.82121 0,10.56723 0,21.13445 0,31.70167 -9.7398,0.71019 -20.6442,-1.39102 -29.6875,1.00097 0.663,12.69725 -1.3288,26.49416 1.001,38.50097 12.6973,-0.66297 26.4942,1.32888 38.501,-1.00097 0,-10.60384 0,-21.20768 0,-31.81152 10.7834,-0.70575 22.7249,1.38463 32.8125,-1.00098 1.0689,-10.62476 -1.9873,-22.34594 1.6235,-32.3883 9.6596,-2.24651 20.5362,0.56087 29.6265,-1.9867 -0.6266,-11.55444 1.247,-24.09393 -0.9308,-35.03723 -10.079,-0.72075 -20.1579,-1.44192 -30.2368,-2.1637 -0.9906,-10.42768 0.7197,-22.01467 -1.8341,-31.76879 -9.6759,-1.56751 -20.8056,1.70847 -29.7303,-2.70691 -3.7509,-9.65015 0.9217,-21.47272 -2.3315,-30.88684 -12.6659,0.6613 -26.539,-1.32594 -38.501,1.00097 z"
         id="path3" />
      <path
         style="fill:#ffffff;fill-opacity:1;stroke:none;stroke-width:17.7165;stroke-linecap:round;stroke-linejoin:round;stroke-opacity:1;paint-order:markers fill stroke"
         d="m 1275.9949,655.33447 c -3.2768,33.08989 -1.1448,66.53342 -1.9623,99.75586 0.2251,42.05033 -0.4991,84.16577 1.0467,126.17494 7.5902,3.79523 17.4798,0.74331 25.8118,0.84715 12.0882,2.39833 13.9643,-5.9991 12.4189,-16.10426 0.6192,-26.0568 0.2424,-52.16778 2.2051,-78.14195 10.7707,-0.88939 22.3709,-3.25623 33.0017,-0.69275 4.9969,8.57508 0.2526,20.51357 3.7507,29.44946 8.5748,1.70558 23.5725,-2.72754 19.7064,10.8628 1.4229,7.83927 -4.0062,23.56183 9.3921,19.609 13.2592,-3.73573 14.6754,4.37164 12.9455,15.625 0.2199,8.84744 -3.3904,22.73141 10.3453,18.80849 9.6652,-0.46232 20.3023,1.86945 29.5259,-0.40027 2.1472,-13.01903 0.7609,-26.42164 1.1933,-39.57825 -5.9587,-4.77741 -24.0459,4.28494 -21.0938,-8.12989 -0.3401,-8.89216 3.5475,-22.67897 -10.2388,-19.68189 -4.5858,-0.76453 -13.4787,-0.24089 -11.978,-7.61913 -1.3064,-7.70382 1.022,-16.48013 -1.4373,-23.526 -6.2241,-1.54799 -16.4144,3.10433 -20.2912,-3.53394 -0.2076,-7.93132 -2.6687,-17.76263 2.0142,-24.75281 5.4639,-3.16784 16.5952,3.69923 18.3868,-4.72412 2.3143,-8.98188 -1.3443,-19.82061 3.1311,-27.81372 6.7357,-2.57025 14.8423,0.29584 21.0785,-2.20642 0.2893,-9.32721 0.5791,-18.6544 0.8698,-27.98157 7.7893,-1.59222 23.5385,3.63688 19.5587,-9.69848 -1.5641,-8.54107 3.2242,-22.14943 -2.5635,-27.41394 -12.6507,0.68741 -26.4037,-1.33959 -38.3942,0.97351 -0.2893,10.88761 -0.5773,21.77526 -0.8636,32.66296 -7.2414,2.21908 -23.634,-4.2667 -21.1971,8.09633 -2.371,7.22372 4.7347,23.80632 -6.9188,21.8662 -10.993,-1.71089 -18.101,1.94898 -15.134,14.06887 0.01,9.55582 2.1507,21.31424 -11.4345,16.82799 -7.5329,-0.58944 -16.8081,1.02394 -23.4345,-1.47523 -1.9423,-30.6271 -1.6368,-61.35474 -2.3682,-92.03492 -11.2245,-2.28711 -24.191,-0.3225 -36.0809,-0.98571 z"
         id="path4" />
      <path
         style="fill:#ffffff;fill-opacity:1;stroke:none;stroke-width:17.7165;stroke-linecap:round;stroke-linejoin:round;stroke-opacity:1;paint-order:markers fill stroke"
         d="m 1473.999,716.40625 c 0.7202,12.18597 -1.4051,25.57073 1.0254,37.03614 12.4285,-0.9316 25.9069,0.63192 37.6923,-1.82801 -0.2543,-11.30072 2.7588,-23.42231 0.4242,-34.40857 -12.1486,-3.69791 -25.5699,-0.84211 -38.1409,-1.80053 z"
         id="path5" />
      <path
         style="fill:#ffffff;fill-opacity:1;stroke:none;stroke-width:17.7165;stroke-linecap:round;stroke-linejoin:round;stroke-opacity:1;paint-order:markers fill stroke"
         d="m 1473.999,814.84375 c 1.1973,11.86341 -2.2012,24.86988 1.6693,36.21216 11.4845,3.7735 24.6017,1.13819 36.615,2.28882 2.1323,-11.55857 1.9613,-25.00777 1.236,-37.21314 -9.1884,-4.53465 -20.8709,-1.14006 -30.8746,-2.28881 -2.7001,0.58071 -6.6628,-1.21692 -8.6457,1.00097 z"
         id="path6" />
      <path
         style="fill:#ffffff;fill-opacity:1;stroke:none;stroke-width:17.7165;stroke-linecap:round;stroke-linejoin:round;stroke-opacity:1;paint-order:markers fill stroke"
         d="m 1550.473,655.38635 c 0.9296,14.54764 -0.6558,30.15376 1.828,44.04908 7.0883,1.11012 16.055,-0.89423 22.2748,2.79236 2.1343,14.73877 -0.4821,30.555 1.947,44.72656 7.1097,2.54341 24.0592,-4.55045 21.8353,7.13076 0.9176,12.57911 -0.8031,26.26663 1.6877,38.18479 7.0813,2.53969 24.0019,-4.55131 21.7451,7.12475 1.3395,12.92252 -1.5892,26.93881 2.5377,39.31385 6.3434,3.05092 16.5008,-1.18093 21.1165,2.87764 3.0771,13.00232 0.5685,27.13652 2.91,39.70964 11.4209,0.69766 23.8629,2.37854 34.6771,-0.0214 -0.8519,-14.11711 3.0435,-29.05297 -0.9338,-42.76428 -5.5891,-6.96756 -18.287,1.862 -22.4701,-6.24085 -2.528,-13.88203 0.313,-29.20647 -2.5543,-42.6422 -7.4932,-2.15029 -24.0747,4.40438 -20.1452,-8.69445 -0.7362,-11.64001 1.4009,-24.20446 -1.8305,-35.38514 -6.896,-3.25251 -15.0264,-1.92633 -22.3969,-2.75574 -0.9376,-15.19288 0.6785,-31.45677 -1.8066,-45.99914 -7.1342,-2.53678 -23.909,4.54431 -21.8921,-7.12431 -1.1166,-11.31261 0.4153,-23.79291 -2.2595,-34.41927 -11.8805,0.45508 -25.1123,-2.08204 -36.2702,0.13732 z"
         id="path7" />
    </g>
  </g>
</svg>
